<?plantuml 1.2026.2?><svg xmlns="http://www.w3.org/2000/svg" xmlns:xlink="http://www.w3.org/1999/xlink" contentStyleType="text/css" data-diagram-type="CLASS" height="671px" preserveAspectRatio="none" style="width:1751px;height:671px;background:#FFFFFF;" version="1.1" viewBox="0 0 1751 671" width="1751px" zoomAndPan="magnify"><title>Assignment 3: Bridge Pattern
Topic B - Notifications</title><defs/><g><g class="title" data-source-line="1"><text fill="#000000" font-family="sans-serif" font-size="14" font-weight="bold" lengthAdjust="spacing" textLength="234.3633" x="751.3184" y="22.9951">Assignment 3: Bridge Pattern</text><text fill="#000000" font-family="sans-serif" font-size="14" font-weight="bold" lengthAdjust="spacing" textLength="174.2617" x="781.3691" y="39.292">Topic B - Notifications</text></g><!--cluster notifications--><g class="cluster" data-qualified-name="notifications" data-source-line="20" id="ent0003"><rect fill="none" height="360" rx="2.5" ry="2.5" style="stroke:#000000;stroke-width:1.5;" width="1738" x="7" y="231.5938"/><text fill="#000000" font-family="sans-serif" font-size="14" font-weight="bold" lengthAdjust="spacing" textLength="99.1211" x="826.4395" y="246.5889">notifications</text></g><!--class Notification--><g class="entity" data-qualified-name="notifications.Notification" data-source-line="21" id="ent0004"><rect fill="#F1F1F1" height="172.6719" rx="2.5" ry="2.5" style="stroke:#181818;stroke-width:0.5;" width="445.7676" x="74" y="266.5938"/><ellipse cx="246.1948" cy="287.8906" fill="#CDCDCD" rx="10" ry="10" style="stroke:#181818;stroke-width:1;"/><path d="M245.9136,284.0313 L244.9604,288.2031 L246.8667,288.2031 L245.9136,284.0313 Z M244.6792,282.1875 L247.1479,282.1875 L249.8979,292.3906 L247.8823,292.3906 L247.2573,289.875 L244.5542,289.875 L243.9448,292.3906 L241.9136,292.3906 L244.6792,282.1875 Z " fill="#000000"/><text fill="#000000" font-family="sans-serif" font-size="14" font-style="italic" lengthAdjust="spacing" textLength="97.3779" x="263.1948" y="284.5889">&#171;Abstraction&#187;</text><text fill="#000000" font-family="sans-serif" font-size="14" font-style="italic" lengthAdjust="spacing" textLength="80.3291" x="271.7192" y="300.8857">Notification</text><line style="stroke:#181818;stroke-width:0.5;" x1="75" x2="518.7676" y1="309.1875" y2="309.1875"/><text fill="#000000" font-family="sans-serif" font-size="14" lengthAdjust="spacing" textLength="73.2266" x="80" y="326.1826">-id : String</text><text fill="#000000" font-family="sans-serif" font-size="14" lengthAdjust="spacing" textLength="123.3682" x="80" y="342.4795">-message : String</text><text fill="#000000" font-family="sans-serif" font-size="14" lengthAdjust="spacing" textLength="187.0723" x="80" y="358.7764">-implementation : Channel</text><line style="stroke:#181818;stroke-width:1;" x1="75" x2="518.7676" y1="366.0781" y2="366.0781"/><text fill="#000000" font-family="sans-serif" font-size="14" lengthAdjust="spacing" textLength="433.7676" x="80" y="383.0732">#Notification(id : String, message : String, channel : Channel)</text><text fill="#000000" font-family="sans-serif" font-size="14" font-style="italic" lengthAdjust="spacing" textLength="134.2373" x="80" y="399.3701">+execute() : String</text><text fill="#000000" font-family="sans-serif" font-size="14" lengthAdjust="spacing" textLength="324.9531" x="80" y="415.667">+setImplementation(channel : Channel) : void</text><text fill="#000000" font-family="sans-serif" font-size="14" lengthAdjust="spacing" textLength="292.4551" x="80" y="431.9639">#send(preparedMessage : String) : String</text></g><!--class Reminder--><g class="entity" data-qualified-name="notifications.Reminder" data-source-line="32" id="ent0005"><rect fill="#F1F1F1" height="74.8906" rx="2.5" ry="2.5" style="stroke:#181818;stroke-width:0.5;" width="146.2373" x="23" y="500.5938"/><ellipse cx="58.7081" cy="521.8906" fill="#C2C2C2" rx="10" ry="10" style="stroke:#181818;stroke-width:1;"/><path d="M61.0987,526.5938 Q60.6144,526.8438 60.0831,526.9688 Q59.5675,527.0938 58.9894,527.0938 Q56.9269,527.0938 55.8331,525.7344 Q54.755,524.375 54.755,521.7969 Q54.755,519.2188 55.8331,517.8594 Q56.9269,516.5 58.9894,516.5 Q59.5675,516.5 60.0987,516.625 Q60.63,516.75 61.0987,516.9844 L61.0987,519.2344 Q60.5831,518.75 60.0831,518.5313 Q59.5987,518.3125 59.0831,518.3125 Q57.9737,518.3125 57.4112,519.1875 Q56.8487,520.0625 56.8487,521.7969 Q56.8487,523.5156 57.4112,524.4063 Q57.9737,525.2813 59.0831,525.2813 Q59.5987,525.2813 60.0831,525.0625 Q60.5831,524.8281 61.0987,524.3594 L61.0987,526.5938 Z " fill="#000000"/><text fill="#000000" font-family="sans-serif" font-size="14" font-style="italic" lengthAdjust="spacing" textLength="35.7656" x="92.6479" y="518.5889">&#171;A1&#187;</text><text fill="#000000" font-family="sans-serif" font-size="14" lengthAdjust="spacing" textLength="67.9971" x="76.5321" y="534.8857">Reminder</text><line style="stroke:#181818;stroke-width:0.5;" x1="24" x2="168.2373" y1="543.1875" y2="543.1875"/><line style="stroke:#181818;stroke-width:0.5;" x1="24" x2="168.2373" y1="551.1875" y2="551.1875"/><text fill="#000000" font-family="sans-serif" font-size="14" lengthAdjust="spacing" textLength="134.2373" x="29" y="568.1826">+execute() : String</text></g><!--class UrgentAlert--><g class="entity" data-qualified-name="notifications.UrgentAlert" data-source-line="36" id="ent0006"><rect fill="#F1F1F1" height="74.8906" rx="2.5" ry="2.5" style="stroke:#181818;stroke-width:0.5;" width="146.2373" x="224" y="500.5938"/><ellipse cx="253.7711" cy="521.8906" fill="#C2C2C2" rx="10" ry="10" style="stroke:#181818;stroke-width:1;"/><path d="M256.1617,526.5938 Q255.6773,526.8438 255.1461,526.9688 Q254.6305,527.0938 254.0523,527.0938 Q251.9898,527.0938 250.8961,525.7344 Q249.818,524.375 249.818,521.7969 Q249.818,519.2188 250.8961,517.8594 Q251.9898,516.5 254.0523,516.5 Q254.6305,516.5 255.1617,516.625 Q255.693,516.75 256.1617,516.9844 L256.1617,519.2344 Q255.6461,518.75 255.1461,518.5313 Q254.6617,518.3125 254.1461,518.3125 Q253.0367,518.3125 252.4742,519.1875 Q251.9117,520.0625 251.9117,521.7969 Q251.9117,523.5156 252.4742,524.4063 Q253.0367,525.2813 254.1461,525.2813 Q254.6617,525.2813 255.1461,525.0625 Q255.6461,524.8281 256.1617,524.3594 L256.1617,526.5938 Z " fill="#000000"/><text fill="#000000" font-family="sans-serif" font-size="14" font-style="italic" lengthAdjust="spacing" textLength="35.7656" x="292.9882" y="518.5889">&#171;A2&#187;</text><text fill="#000000" font-family="sans-serif" font-size="14" lengthAdjust="spacing" textLength="81.1904" x="270.2758" y="534.8857">UrgentAlert</text><line style="stroke:#181818;stroke-width:0.5;" x1="225" x2="369.2373" y1="543.1875" y2="543.1875"/><line style="stroke:#181818;stroke-width:0.5;" x1="225" x2="369.2373" y1="551.1875" y2="551.1875"/><text fill="#000000" font-family="sans-serif" font-size="14" lengthAdjust="spacing" textLength="134.2373" x="230" y="568.1826">+execute() : String</text></g><!--class Channel--><g class="entity" data-qualified-name="notifications.Channel" data-source-line="40" id="ent0007"><rect fill="#F1F1F1" height="74.8906" rx="2.5" ry="2.5" style="stroke:#181818;stroke-width:0.5;" width="398.0801" x="687" y="315.5938"/><ellipse cx="830.354" cy="336.8906" fill="#B1B1B1" rx="10" ry="10" style="stroke:#181818;stroke-width:1;"/><path d="M827.5259,333.4688 L827.5259,331.6875 L833.604,331.6875 L833.604,333.4688 L831.5728,333.4688 L831.5728,340.1094 L833.604,340.1094 L833.604,341.8906 L827.5259,341.8906 L827.5259,340.1094 L829.5571,340.1094 L829.5571,333.4688 L827.5259,333.4688 Z " fill="#000000"/><text fill="#000000" font-family="sans-serif" font-size="14" font-style="italic" lengthAdjust="spacing" textLength="107.3721" x="847.354" y="333.5889">&#171;Implementor&#187;</text><text fill="#000000" font-family="sans-serif" font-size="14" font-style="italic" lengthAdjust="spacing" textLength="57.4766" x="872.3018" y="349.8857">Channel</text><line style="stroke:#181818;stroke-width:0.5;" x1="688" x2="1084.0801" y1="358.1875" y2="358.1875"/><line style="stroke:#181818;stroke-width:0.5;" x1="688" x2="1084.0801" y1="366.1875" y2="366.1875"/><text fill="#000000" font-family="sans-serif" font-size="14" lengthAdjust="spacing" textLength="386.0801" x="693" y="383.1826">+send(notificationId : String, message : String) : String</text></g><!--class EmailChannel--><g class="entity" data-qualified-name="notifications.EmailChannel" data-source-line="44" id="ent0008"><rect fill="#F1F1F1" height="74.8906" rx="2.5" ry="2.5" style="stroke:#181818;stroke-width:0.5;" width="398.0801" x="425" y="500.5938"/><ellipse cx="571.8809" cy="521.8906" fill="#C2C2C2" rx="10" ry="10" style="stroke:#181818;stroke-width:1;"/><path d="M574.2715,526.5938 Q573.7871,526.8438 573.2559,526.9688 Q572.7402,527.0938 572.1621,527.0938 Q570.0996,527.0938 569.0059,525.7344 Q567.9277,524.375 567.9277,521.7969 Q567.9277,519.2188 569.0059,517.8594 Q570.0996,516.5 572.1621,516.5 Q572.7402,516.5 573.2715,516.625 Q573.8027,516.75 574.2715,516.9844 L574.2715,519.2344 Q573.7559,518.75 573.2559,518.5313 Q572.7715,518.3125 572.2559,518.3125 Q571.1465,518.3125 570.584,519.1875 Q570.0215,520.0625 570.0215,521.7969 Q570.0215,523.5156 570.584,524.4063 Q571.1465,525.2813 572.2559,525.2813 Q572.7715,525.2813 573.2559,525.0625 Q573.7559,524.8281 574.2715,524.3594 L574.2715,526.5938 Z " fill="#000000"/><text fill="#000000" font-family="sans-serif" font-size="14" font-style="italic" lengthAdjust="spacing" textLength="30.3174" x="623.8813" y="518.5889">&#171;I1&#187;</text><text fill="#000000" font-family="sans-serif" font-size="14" lengthAdjust="spacing" textLength="96.3184" x="590.8809" y="534.8857">EmailChannel</text><line style="stroke:#181818;stroke-width:0.5;" x1="426" x2="822.0801" y1="543.1875" y2="543.1875"/><line style="stroke:#181818;stroke-width:0.5;" x1="426" x2="822.0801" y1="551.1875" y2="551.1875"/><text fill="#000000" font-family="sans-serif" font-size="14" lengthAdjust="spacing" textLength="386.0801" x="431" y="568.1826">+send(notificationId : String, message : String) : String</text></g><!--class SmsChannel--><g class="entity" data-qualified-name="notifications.SmsChannel" data-source-line="48" id="ent0009"><rect fill="#F1F1F1" height="74.8906" rx="2.5" ry="2.5" style="stroke:#181818;stroke-width:0.5;" width="398.0801" x="878" y="500.5938"/><ellipse cx="1029.3926" cy="521.8906" fill="#C2C2C2" rx="10" ry="10" style="stroke:#181818;stroke-width:1;"/><path d="M1031.7832,526.5938 Q1031.2988,526.8438 1030.7676,526.9688 Q1030.252,527.0938 1029.6738,527.0938 Q1027.6113,527.0938 1026.5176,525.7344 Q1025.4395,524.375 1025.4395,521.7969 Q1025.4395,519.2188 1026.5176,517.8594 Q1027.6113,516.5 1029.6738,516.5 Q1030.252,516.5 1030.7832,516.625 Q1031.3145,516.75 1031.7832,516.9844 L1031.7832,519.2344 Q1031.2676,518.75 1030.7676,518.5313 Q1030.2832,518.3125 1029.7676,518.3125 Q1028.6582,518.3125 1028.0957,519.1875 Q1027.5332,520.0625 1027.5332,521.7969 Q1027.5332,523.5156 1028.0957,524.4063 Q1028.6582,525.2813 1029.7676,525.2813 Q1030.2832,525.2813 1030.7676,525.0625 Q1031.2676,524.8281 1031.7832,524.3594 L1031.7832,526.5938 Z " fill="#000000"/><text fill="#000000" font-family="sans-serif" font-size="14" font-style="italic" lengthAdjust="spacing" textLength="30.3174" x="1076.8813" y="518.5889">&#171;I2&#187;</text><text fill="#000000" font-family="sans-serif" font-size="14" lengthAdjust="spacing" textLength="87.2949" x="1048.3926" y="534.8857">SmsChannel</text><line style="stroke:#181818;stroke-width:0.5;" x1="879" x2="1275.0801" y1="543.1875" y2="543.1875"/><line style="stroke:#181818;stroke-width:0.5;" x1="879" x2="1275.0801" y1="551.1875" y2="551.1875"/><text fill="#000000" font-family="sans-serif" font-size="14" lengthAdjust="spacing" textLength="386.0801" x="884" y="568.1826">+send(notificationId : String, message : String) : String</text></g><!--class PushChannel--><g class="entity" data-qualified-name="notifications.PushChannel" data-source-line="52" id="ent0010"><rect fill="#F1F1F1" height="74.8906" rx="2.5" ry="2.5" style="stroke:#181818;stroke-width:0.5;" width="398.0801" x="1331" y="500.5938"/><ellipse cx="1480.5605" cy="521.8906" fill="#C2C2C2" rx="10" ry="10" style="stroke:#181818;stroke-width:1;"/><path d="M1482.9512,526.5938 Q1482.4668,526.8438 1481.9355,526.9688 Q1481.4199,527.0938 1480.8418,527.0938 Q1478.7793,527.0938 1477.6855,525.7344 Q1476.6074,524.375 1476.6074,521.7969 Q1476.6074,519.2188 1477.6855,517.8594 Q1478.7793,516.5 1480.8418,516.5 Q1481.4199,516.5 1481.9512,516.625 Q1482.4824,516.75 1482.9512,516.9844 L1482.9512,519.2344 Q1482.4355,518.75 1481.9355,518.5313 Q1481.4512,518.3125 1480.9355,518.3125 Q1479.8262,518.3125 1479.2637,519.1875 Q1478.7012,520.0625 1478.7012,521.7969 Q1478.7012,523.5156 1479.2637,524.4063 Q1479.8262,525.2813 1480.9355,525.2813 Q1481.4512,525.2813 1481.9355,525.0625 Q1482.4355,524.8281 1482.9512,524.3594 L1482.9512,526.5938 Z " fill="#000000"/><text fill="#000000" font-family="sans-serif" font-size="14" font-style="italic" lengthAdjust="spacing" textLength="30.3174" x="1529.8813" y="518.5889">&#171;I3&#187;</text><text fill="#000000" font-family="sans-serif" font-size="14" lengthAdjust="spacing" textLength="90.959" x="1499.5605" y="534.8857">PushChannel</text><line style="stroke:#181818;stroke-width:0.5;" x1="1332" x2="1728.0801" y1="543.1875" y2="543.1875"/><line style="stroke:#181818;stroke-width:0.5;" x1="1332" x2="1728.0801" y1="551.1875" y2="551.1875"/><text fill="#000000" font-family="sans-serif" font-size="14" lengthAdjust="spacing" textLength="386.0801" x="1337" y="568.1826">+send(notificationId : String, message : String) : String</text></g><!--class Main--><g class="entity" data-qualified-name="Main" data-source-line="14" id="ent0002"><rect fill="#F1F1F1" height="107.4844" rx="2.5" ry="2.5" style="stroke:#181818;stroke-width:0.5;" width="401.9971" x="390" y="60.5938"/><ellipse cx="560.0928" cy="81.8906" fill="#C2C2C2" rx="10" ry="10" style="stroke:#181818;stroke-width:1;"/><path d="M562.4834,86.5938 Q561.999,86.8438 561.4678,86.9688 Q560.9521,87.0938 560.374,87.0938 Q558.3115,87.0938 557.2178,85.7344 Q556.1396,84.375 556.1396,81.7969 Q556.1396,79.2188 557.2178,77.8594 Q558.3115,76.5 560.374,76.5 Q560.9521,76.5 561.4834,76.625 Q562.0146,76.75 562.4834,76.9844 L562.4834,79.2344 Q561.9678,78.75 561.4678,78.5313 Q560.9834,78.3125 560.4678,78.3125 Q559.3584,78.3125 558.7959,79.1875 Q558.2334,80.0625 558.2334,81.7969 Q558.2334,83.5156 558.7959,84.4063 Q559.3584,85.2813 560.4678,85.2813 Q560.9834,85.2813 561.4678,85.0625 Q561.9678,84.8281 562.4834,84.3594 L562.4834,86.5938 Z " fill="#000000"/><text fill="#000000" font-family="sans-serif" font-size="14" font-style="italic" lengthAdjust="spacing" textLength="57.8115" x="577.0928" y="78.5889">&#171;Client&#187;</text><text fill="#000000" font-family="sans-serif" font-size="14" lengthAdjust="spacing" textLength="33.4209" x="589.2881" y="94.8857">Main</text><line style="stroke:#181818;stroke-width:0.5;" x1="391" x2="790.9971" y1="103.1875" y2="103.1875"/><line style="stroke:#181818;stroke-width:0.5;" x1="391" x2="790.9971" y1="111.1875" y2="111.1875"/><text fill="#000000" font-family="sans-serif" font-size="14" lengthAdjust="spacing" text-decoration="underline" textLength="197.7158" x="396" y="128.1826">+main(args : String[]) : void</text><text fill="#000000" font-family="sans-serif" font-size="14" lengthAdjust="spacing" text-decoration="underline" textLength="124.3184" x="396" y="144.4795">-runDemo() : void</text><text fill="#000000" font-family="sans-serif" font-size="14" lengthAdjust="spacing" text-decoration="underline" textLength="389.9971" x="396" y="160.7764">-runSwitchCheck(email : Channel, sms : Channel) : void</text></g><g class="entity" data-qualified-name="GMN22" data-source-line="75" id="ent0023"><path d="M847,84.5938 L847,110.0938 L792.09,114.0938 L847,118.0938 L847,143.4844 A0,0 0 0 0 847,143.4844 L1115.4473,143.4844 A0,0 0 0 0 1115.4473,143.4844 L1115.4473,94.5938 L1105.4473,84.5938 L847,84.5938 A0,0 0 0 0 847,84.5938" fill="#FAFAFA" style="stroke:#181818;stroke-width:0.5;"/><path d="M1105.4473,84.5938 L1105.4473,94.5938 L1115.4473,94.5938 L1105.4473,84.5938" fill="#FAFAFA" style="stroke:#181818;stroke-width:0.5;"/><text fill="#000000" font-family="sans-serif" font-size="14" lengthAdjust="spacing" textLength="247.4473" x="853" y="102.5889">Creates Reminder and UrgentAlert.</text><text fill="#000000" font-family="sans-serif" font-size="14" lengthAdjust="spacing" textLength="234.8623" x="853" y="118.8857">Uses EmailChannel, SmsChannel,</text><text fill="#000000" font-family="sans-serif" font-size="14" lengthAdjust="spacing" textLength="187.8311" x="853" y="135.1826">and PushChannel in T1-T7.</text></g><!--reverse link Notification to Reminder--><g class="link" data-entity-1="ent0004" data-entity-2="ent0005" data-link-type="extension" data-source-line="56" id="lnk11"><path codeLine="56" d="M189.6585,451.82 C166.1585,473.21 155.5,482.9238 136.22,500.4738" fill="none" id="Notification-backto-Reminder" style="stroke:#181818;stroke-width:1;"/><polygon fill="none" points="202.97,439.7038,185.6198,447.3829,193.6973,456.2572,202.97,439.7038" style="stroke:#181818;stroke-width:1;"/></g><!--reverse link Notification to UrgentAlert--><g class="link" data-entity-1="ent0004" data-entity-2="ent0006" data-link-type="extension" data-source-line="57" id="lnk12"><path codeLine="57" d="M297,457.7038 C297,479.0938 297,482.9238 297,500.4738" fill="none" id="Notification-backto-UrgentAlert" style="stroke:#181818;stroke-width:1;"/><polygon fill="none" points="297,439.7038,291,457.7038,303,457.7038,297,439.7038" style="stroke:#181818;stroke-width:1;"/></g><!--reverse link Channel to EmailChannel--><g class="link" data-entity-1="ent0007" data-entity-2="ent0008" data-link-type="extension" data-source-line="59" id="lnk13"><path codeLine="59" d="M818.8532,400.9909 C773.1532,432.9109 721.97,468.6638 676.3,500.5638" fill="none" id="Channel-backto-EmailChannel" style="stroke:#181818;stroke-width:1;stroke-dasharray:7,7;"/><polygon fill="none" points="833.61,390.6838,815.4175,396.072,822.2889,405.9098,833.61,390.6838" style="stroke:#181818;stroke-width:1;"/></g><!--reverse link Channel to SmsChannel--><g class="link" data-entity-1="ent0007" data-entity-2="ent0009" data-link-type="extension" data-source-line="60" id="lnk14"><path codeLine="60" d="M937.1881,403.1357 C970.5081,435.0557 1005.58,468.6638 1038.87,500.5638" fill="none" id="Channel-backto-SmsChannel" style="stroke:#181818;stroke-width:1;stroke-dasharray:7,7;"/><polygon fill="none" points="924.19,390.6838,933.0374,407.4684,941.3387,398.803,924.19,390.6838" style="stroke:#181818;stroke-width:1;"/></g><!--reverse link Channel to PushChannel--><g class="link" data-entity-1="ent0007" data-entity-2="ent0010" data-link-type="extension" data-source-line="61" id="lnk15"><path codeLine="61" d="M1032.0944,395.6043 C1144.4144,427.5243 1289.19,468.6638 1401.45,500.5638" fill="none" id="Channel-backto-PushChannel" style="stroke:#181818;stroke-width:1;stroke-dasharray:7,7;"/><polygon fill="none" points="1014.78,390.6838,1030.4542,401.3758,1033.7346,389.8328,1014.78,390.6838" style="stroke:#181818;stroke-width:1;"/></g><!--link Notification to Channel--><g class="link" data-entity-1="ent0004" data-entity-2="ent0007" data-link-type="dependency" data-source-line="63" id="lnk16"><path codeLine="63" d="M520.1,353.0938 C574.96,353.0938 627.34,353.0938 680.99,353.0938" fill="none" id="Notification-to-Channel" style="stroke:#181818;stroke-width:1;"/><polygon fill="#181818" points="686.99,353.0938,677.99,349.0938,681.99,353.0938,677.99,357.0938,686.99,353.0938" style="stroke:#181818;stroke-width:1;"/><text fill="#000000" font-family="sans-serif" font-size="14" lengthAdjust="spacing" textLength="110.9268" x="548.5" y="346.0889">implementation</text></g><!--link Reminder to UrgentAlert--><!--link EmailChannel to SmsChannel--><!--link SmsChannel to PushChannel--><!--link Main to Notification--><g class="link" data-entity-1="ent0002" data-entity-2="ent0004" data-link-type="dependency" data-source-line="71" id="lnk20"><path codeLine="71" d="M525.75,167.6938 C489.8,196.6737 448.9614,229.5984 408.0214,262.5984" fill="none" id="Main-to-Notification" style="stroke:#181818;stroke-width:1;stroke-dasharray:7,7;"/><polygon fill="#181818" points="403.35,266.3638,412.8673,263.8299,407.2428,263.2259,407.8468,257.6014,403.35,266.3638" style="stroke:#181818;stroke-width:1;"/><text fill="#000000" font-family="sans-serif" font-size="14" lengthAdjust="spacing" textLength="63.4785" x="488" y="211.5889">executes</text></g><!--link Main to Channel--><g class="link" data-entity-1="ent0002" data-entity-2="ent0007" data-link-type="dependency" data-source-line="72" id="lnk21"><path codeLine="72" d="M656.47,167.6938 C712.32,212.5537 786.4925,272.146 835.7225,311.696" fill="none" id="Main-to-Channel" style="stroke:#181818;stroke-width:1;stroke-dasharray:7,7;"/><polygon fill="#181818" points="840.4,315.4538,835.8889,306.6987,836.5021,312.3223,830.8785,312.9354,840.4,315.4538" style="stroke:#181818;stroke-width:1;"/><text fill="#000000" font-family="sans-serif" font-size="14" lengthAdjust="spacing" textLength="60.6006" x="713" y="211.5889">switches</text></g><g class="legend" data-source-line="80"><rect fill="#DDDDDD" height="42.5938" rx="7.5" ry="7.5" style="stroke:#000000;stroke-width:1;" width="252.5186" x="12" y="608.5938"/><text fill="#000000" font-family="sans-serif" font-size="14" lengthAdjust="spacing" textLength="210.875" x="17" y="626.5889">A1, A2 = Refined abstractions</text><text fill="#000000" font-family="sans-serif" font-size="14" lengthAdjust="spacing" textLength="242.5186" x="17" y="642.8857">I1, I2, I3 = Concrete implementors</text></g><?plantuml-src jLNVJzim47xtNt7INZhHLBJiXrInIgNRf3umeHMU60_6lYHM4pkotJ46_Eyx9v0uAI3jWKfLwtpdxxxlxknuvGk4fNCgqoLg3qTpEB5APWXdt7kq-fS-DvKIS089_31UfKfmhunsZ7bJWJTmRRmt9KXbKGI4CRTLkkAMbr0QRKHkJOdWxGuZnELScXkbCqXvuMAaK1hzROLGcU8sB29C5DovfVTMNUyyheNH6_KNuJ0AgRZOyWmt_fQS1KbSPqNC8J7bky9_DzhNcwSV8b0RYGuh-FWnUcYvteQ7dmuPgnN0ALSQZezNXQAYBHPmnu0-1t3dF5L7F4190IDkCmTps91SdLrUlQV_lusITMpInTgT_egb6Rs2RswK5_agHx4T8N4N5BhAkTPOZC6Lhbks90-CFPQ2J4LzUzJAhvstNFYcfBtMah7b8qghrbsZIidMKVIqHET2fcSWLLO5Xjbgk5kXNKZI_dtNqp6ASettKen1D4IHzvQ8El5ay07m3mgQbhg-0ta7uD2lUmf7-xHnNngP3hKSLHPfFb2U3fGDyb0ZmazJvvzOAYtHXXfFUwKzU4bdR_-5pKZeia3h0yNiloYKfXETSe5FpeYYDM_iWAls68_E-hLsl2RwMvZOAENqpJ9jIXVbcRrPdhETowD4Hs-Gg7yYxvEadPqNu6Wq6ePMuFraqkl1FjhLRH-Bl3wZBB4gotsoQFVC1oU-sTFEVNAPAobHNpNxzbNtXcKOFT0PjNiO6QkcYjONzcIow8kVFnqOrmLqFbnzwHB6g9NqBWd4ODBwycShYvpsTSQubh6P2Rjms1_zSQHtp49yF4QK_doQd7-UC1gUS6KZOmLcOL5WwidlSZg6vGo-KCwKNekolSFhrp70cl3rZBv75BCoMbWasQexu2vGDvp_0000?></g></svg>